<mxfile host="Electron" modified="2024-02-14T15:12:33.330Z" agent="Mozilla/5.0 (Windows NT 10.0; Win64; x64) AppleWebKit/537.36 (KHTML, like Gecko) draw.io/23.0.2 Chrome/120.0.6099.109 Electron/28.1.0 Safari/537.36" etag="17nIEEwokMqf8VdV7qZp" version="23.0.2" type="device">
  <diagram name="第 1 页" id="0UkRAWhv97G_hta1VuXM">
    <mxGraphModel dx="1434" dy="878" grid="1" gridSize="10" guides="1" tooltips="1" connect="1" arrows="1" fold="1" page="1" pageScale="1" pageWidth="827" pageHeight="1169" math="0" shadow="0">
      <root>
        <mxCell id="0" />
        <mxCell id="1" parent="0" />
        <mxCell id="wZC5xmdolLClaahxzQqj-42" style="edgeStyle=orthogonalEdgeStyle;rounded=0;orthogonalLoop=1;jettySize=auto;html=1;exitX=0.5;exitY=1;exitDx=0;exitDy=0;entryX=0.5;entryY=0;entryDx=0;entryDy=0;" edge="1" parent="1" source="wZC5xmdolLClaahxzQqj-5" target="wZC5xmdolLClaahxzQqj-15">
          <mxGeometry relative="1" as="geometry" />
        </mxCell>
        <mxCell id="wZC5xmdolLClaahxzQqj-5" value="socket( )" style="rounded=1;whiteSpace=wrap;html=1;fontFamily=Maple Mono SC NF;" vertex="1" parent="1">
          <mxGeometry x="460" y="200" width="120" height="40" as="geometry" />
        </mxCell>
        <mxCell id="wZC5xmdolLClaahxzQqj-35" style="edgeStyle=orthogonalEdgeStyle;rounded=0;orthogonalLoop=1;jettySize=auto;html=1;exitX=0.5;exitY=1;exitDx=0;exitDy=0;fontFamily=Maple Mono SC NF;" edge="1" parent="1" source="wZC5xmdolLClaahxzQqj-14" target="wZC5xmdolLClaahxzQqj-18">
          <mxGeometry relative="1" as="geometry" />
        </mxCell>
        <mxCell id="wZC5xmdolLClaahxzQqj-14" value="accept( )" style="rounded=1;whiteSpace=wrap;html=1;fontFamily=Maple Mono SC NF;" vertex="1" parent="1">
          <mxGeometry x="460" y="390" width="120" height="40" as="geometry" />
        </mxCell>
        <mxCell id="wZC5xmdolLClaahxzQqj-43" style="edgeStyle=orthogonalEdgeStyle;rounded=0;orthogonalLoop=1;jettySize=auto;html=1;exitX=0.5;exitY=1;exitDx=0;exitDy=0;entryX=0.5;entryY=0;entryDx=0;entryDy=0;" edge="1" parent="1" source="wZC5xmdolLClaahxzQqj-15" target="wZC5xmdolLClaahxzQqj-16">
          <mxGeometry relative="1" as="geometry" />
        </mxCell>
        <mxCell id="wZC5xmdolLClaahxzQqj-15" value="bind( )" style="rounded=1;whiteSpace=wrap;html=1;fontFamily=Maple Mono SC NF;" vertex="1" parent="1">
          <mxGeometry x="460" y="270" width="120" height="40" as="geometry" />
        </mxCell>
        <mxCell id="wZC5xmdolLClaahxzQqj-44" style="edgeStyle=orthogonalEdgeStyle;rounded=0;orthogonalLoop=1;jettySize=auto;html=1;exitX=0.5;exitY=1;exitDx=0;exitDy=0;entryX=0.5;entryY=0;entryDx=0;entryDy=0;fontFamily=Maple Mono SC NF;" edge="1" parent="1" source="wZC5xmdolLClaahxzQqj-16" target="wZC5xmdolLClaahxzQqj-14">
          <mxGeometry relative="1" as="geometry" />
        </mxCell>
        <mxCell id="wZC5xmdolLClaahxzQqj-16" value="listen( )" style="rounded=1;whiteSpace=wrap;html=1;fontFamily=Maple Mono SC NF;" vertex="1" parent="1">
          <mxGeometry x="460" y="330" width="120" height="40" as="geometry" />
        </mxCell>
        <mxCell id="wZC5xmdolLClaahxzQqj-37" style="edgeStyle=orthogonalEdgeStyle;rounded=0;orthogonalLoop=1;jettySize=auto;html=1;exitX=1;exitY=0.5;exitDx=0;exitDy=0;entryX=1;entryY=0.5;entryDx=0;entryDy=0;fontFamily=Maple Mono SC NF;" edge="1" parent="1" source="wZC5xmdolLClaahxzQqj-17" target="wZC5xmdolLClaahxzQqj-18">
          <mxGeometry relative="1" as="geometry" />
        </mxCell>
        <mxCell id="wZC5xmdolLClaahxzQqj-38" style="edgeStyle=orthogonalEdgeStyle;rounded=0;orthogonalLoop=1;jettySize=auto;html=1;exitX=0.5;exitY=1;exitDx=0;exitDy=0;entryX=0.5;entryY=0;entryDx=0;entryDy=0;fontFamily=Maple Mono SC NF;" edge="1" parent="1" source="wZC5xmdolLClaahxzQqj-17" target="wZC5xmdolLClaahxzQqj-20">
          <mxGeometry relative="1" as="geometry" />
        </mxCell>
        <mxCell id="wZC5xmdolLClaahxzQqj-40" style="rounded=0;orthogonalLoop=1;jettySize=auto;html=1;exitX=0;exitY=0.5;exitDx=0;exitDy=0;entryX=1;entryY=0.5;entryDx=0;entryDy=0;" edge="1" parent="1" source="wZC5xmdolLClaahxzQqj-17" target="wZC5xmdolLClaahxzQqj-24">
          <mxGeometry relative="1" as="geometry" />
        </mxCell>
        <mxCell id="wZC5xmdolLClaahxzQqj-17" value="write( )" style="rounded=1;whiteSpace=wrap;html=1;fontFamily=Maple Mono SC NF;" vertex="1" parent="1">
          <mxGeometry x="460" y="620" width="120" height="40" as="geometry" />
        </mxCell>
        <mxCell id="wZC5xmdolLClaahxzQqj-36" style="edgeStyle=orthogonalEdgeStyle;rounded=0;orthogonalLoop=1;jettySize=auto;html=1;exitX=0.5;exitY=1;exitDx=0;exitDy=0;entryX=0.5;entryY=0;entryDx=0;entryDy=0;fontFamily=Maple Mono SC NF;" edge="1" parent="1" source="wZC5xmdolLClaahxzQqj-18" target="wZC5xmdolLClaahxzQqj-17">
          <mxGeometry relative="1" as="geometry" />
        </mxCell>
        <mxCell id="wZC5xmdolLClaahxzQqj-18" value="read( )" style="rounded=1;whiteSpace=wrap;html=1;fontFamily=Maple Mono SC NF;" vertex="1" parent="1">
          <mxGeometry x="460" y="510" width="120" height="40" as="geometry" />
        </mxCell>
        <mxCell id="wZC5xmdolLClaahxzQqj-39" style="edgeStyle=orthogonalEdgeStyle;rounded=0;orthogonalLoop=1;jettySize=auto;html=1;exitX=0.5;exitY=1;exitDx=0;exitDy=0;entryX=0.5;entryY=0;entryDx=0;entryDy=0;fontFamily=Maple Mono SC NF;" edge="1" parent="1" source="wZC5xmdolLClaahxzQqj-20" target="wZC5xmdolLClaahxzQqj-21">
          <mxGeometry relative="1" as="geometry" />
        </mxCell>
        <mxCell id="wZC5xmdolLClaahxzQqj-20" value="read( )" style="rounded=1;whiteSpace=wrap;html=1;fontFamily=Maple Mono SC NF;" vertex="1" parent="1">
          <mxGeometry x="460" y="680" width="120" height="40" as="geometry" />
        </mxCell>
        <mxCell id="wZC5xmdolLClaahxzQqj-21" value="close( )" style="rounded=1;whiteSpace=wrap;html=1;fontFamily=Maple Mono SC NF;" vertex="1" parent="1">
          <mxGeometry x="460" y="780" width="120" height="40" as="geometry" />
        </mxCell>
        <mxCell id="wZC5xmdolLClaahxzQqj-28" style="edgeStyle=orthogonalEdgeStyle;rounded=0;orthogonalLoop=1;jettySize=auto;html=1;exitX=0.5;exitY=1;exitDx=0;exitDy=0;entryX=0.5;entryY=0;entryDx=0;entryDy=0;" edge="1" parent="1" source="wZC5xmdolLClaahxzQqj-22" target="wZC5xmdolLClaahxzQqj-25">
          <mxGeometry relative="1" as="geometry" />
        </mxCell>
        <mxCell id="wZC5xmdolLClaahxzQqj-22" value="&lt;font&gt;socket( )&lt;/font&gt;" style="rounded=1;whiteSpace=wrap;html=1;fontFamily=Maple Mono SC NF;" vertex="1" parent="1">
          <mxGeometry x="70" y="290" width="120" height="40" as="geometry" />
        </mxCell>
        <mxCell id="wZC5xmdolLClaahxzQqj-41" style="rounded=0;orthogonalLoop=1;jettySize=auto;html=1;exitX=1;exitY=0.5;exitDx=0;exitDy=0;entryX=0;entryY=0.5;entryDx=0;entryDy=0;" edge="1" parent="1" source="wZC5xmdolLClaahxzQqj-23" target="wZC5xmdolLClaahxzQqj-20">
          <mxGeometry relative="1" as="geometry" />
        </mxCell>
        <mxCell id="wZC5xmdolLClaahxzQqj-23" value="close( )" style="rounded=1;whiteSpace=wrap;html=1;fontFamily=Maple Mono SC NF;" vertex="1" parent="1">
          <mxGeometry x="70" y="712.5" width="120" height="40" as="geometry" />
        </mxCell>
        <mxCell id="wZC5xmdolLClaahxzQqj-32" style="edgeStyle=orthogonalEdgeStyle;rounded=0;orthogonalLoop=1;jettySize=auto;html=1;exitX=0.5;exitY=1;exitDx=0;exitDy=0;entryX=0.5;entryY=0;entryDx=0;entryDy=0;" edge="1" parent="1" source="wZC5xmdolLClaahxzQqj-24" target="wZC5xmdolLClaahxzQqj-23">
          <mxGeometry relative="1" as="geometry" />
        </mxCell>
        <mxCell id="wZC5xmdolLClaahxzQqj-33" style="edgeStyle=orthogonalEdgeStyle;rounded=0;orthogonalLoop=1;jettySize=auto;html=1;exitX=0;exitY=0.5;exitDx=0;exitDy=0;entryX=0;entryY=0.5;entryDx=0;entryDy=0;" edge="1" parent="1" source="wZC5xmdolLClaahxzQqj-24" target="wZC5xmdolLClaahxzQqj-26">
          <mxGeometry relative="1" as="geometry" />
        </mxCell>
        <mxCell id="wZC5xmdolLClaahxzQqj-24" value="read( )" style="rounded=1;whiteSpace=wrap;html=1;fontFamily=Maple Mono SC NF;" vertex="1" parent="1">
          <mxGeometry x="70" y="647.5" width="120" height="40" as="geometry" />
        </mxCell>
        <mxCell id="wZC5xmdolLClaahxzQqj-29" style="edgeStyle=orthogonalEdgeStyle;rounded=0;orthogonalLoop=1;jettySize=auto;html=1;exitX=0.5;exitY=1;exitDx=0;exitDy=0;entryX=0.5;entryY=0;entryDx=0;entryDy=0;" edge="1" parent="1" source="wZC5xmdolLClaahxzQqj-25" target="wZC5xmdolLClaahxzQqj-26">
          <mxGeometry relative="1" as="geometry" />
        </mxCell>
        <mxCell id="wZC5xmdolLClaahxzQqj-48" style="rounded=0;orthogonalLoop=1;jettySize=auto;html=1;exitX=1;exitY=0.5;exitDx=0;exitDy=0;" edge="1" parent="1" source="wZC5xmdolLClaahxzQqj-25">
          <mxGeometry relative="1" as="geometry">
            <mxPoint x="520" y="470" as="targetPoint" />
          </mxGeometry>
        </mxCell>
        <mxCell id="wZC5xmdolLClaahxzQqj-25" value="connect( )" style="rounded=1;whiteSpace=wrap;html=1;fontFamily=Maple Mono SC NF;" vertex="1" parent="1">
          <mxGeometry x="70" y="360" width="120" height="40" as="geometry" />
        </mxCell>
        <mxCell id="wZC5xmdolLClaahxzQqj-30" style="edgeStyle=orthogonalEdgeStyle;rounded=0;orthogonalLoop=1;jettySize=auto;html=1;exitX=0.5;exitY=1;exitDx=0;exitDy=0;entryX=0.5;entryY=0;entryDx=0;entryDy=0;" edge="1" parent="1" source="wZC5xmdolLClaahxzQqj-26" target="wZC5xmdolLClaahxzQqj-24">
          <mxGeometry relative="1" as="geometry" />
        </mxCell>
        <mxCell id="wZC5xmdolLClaahxzQqj-34" style="rounded=0;orthogonalLoop=1;jettySize=auto;html=1;exitX=1;exitY=0.5;exitDx=0;exitDy=0;entryX=0;entryY=0.5;entryDx=0;entryDy=0;startArrow=block;startFill=1;" edge="1" parent="1" source="wZC5xmdolLClaahxzQqj-26" target="wZC5xmdolLClaahxzQqj-18">
          <mxGeometry relative="1" as="geometry" />
        </mxCell>
        <mxCell id="wZC5xmdolLClaahxzQqj-26" value="write( )" style="rounded=1;whiteSpace=wrap;html=1;fontFamily=Maple Mono SC NF;" vertex="1" parent="1">
          <mxGeometry x="70" y="430" width="120" height="40" as="geometry" />
        </mxCell>
        <mxCell id="wZC5xmdolLClaahxzQqj-45" value="建立连接" style="text;strokeColor=none;align=center;fillColor=none;html=1;verticalAlign=middle;whiteSpace=wrap;rounded=0;rotation=15;fontFamily=Maple Mono SC NF;fontSize=14;" vertex="1" parent="1">
          <mxGeometry x="289.83" y="381.29" width="70" height="30" as="geometry" />
        </mxCell>
        <mxCell id="wZC5xmdolLClaahxzQqj-49" value="client 发送请求" style="text;html=1;align=center;verticalAlign=middle;resizable=0;points=[];autosize=1;strokeColor=none;fillColor=none;rotation=15;fontSize=14;fontFamily=Maple Mono SC NF;" vertex="1" parent="1">
          <mxGeometry x="245" y="460" width="150" height="30" as="geometry" />
        </mxCell>
        <mxCell id="wZC5xmdolLClaahxzQqj-50" value="阻塞直到&lt;br style=&quot;font-size: 14px;&quot;&gt;客户端连接" style="text;html=1;align=center;verticalAlign=middle;resizable=0;points=[];autosize=1;strokeColor=none;fillColor=none;fontFamily=Maple Mono SC NF;fontSize=14;" vertex="1" parent="1">
          <mxGeometry x="525" y="445" width="110" height="50" as="geometry" />
        </mxCell>
        <mxCell id="wZC5xmdolLClaahxzQqj-51" value="响应数据" style="text;html=1;align=center;verticalAlign=middle;resizable=0;points=[];autosize=1;strokeColor=none;fillColor=none;rotation=-5;fontFamily=Maple Mono SC NF;fontSize=14;" vertex="1" parent="1">
          <mxGeometry x="260" y="617.5" width="90" height="30" as="geometry" />
        </mxCell>
        <mxCell id="wZC5xmdolLClaahxzQqj-52" value="断开连接" style="text;html=1;align=center;verticalAlign=middle;resizable=0;points=[];autosize=1;strokeColor=none;fillColor=none;rotation=-5;fontFamily=Maple Mono SC NF;fontSize=14;" vertex="1" parent="1">
          <mxGeometry x="270" y="682.5" width="90" height="30" as="geometry" />
        </mxCell>
        <mxCell id="wZC5xmdolLClaahxzQqj-56" value="&lt;font style=&quot;font-size: 15px;&quot; face=&quot;Maple Mono SC NF&quot;&gt;Client&lt;/font&gt;" style="text;html=1;align=center;verticalAlign=middle;resizable=0;points=[];autosize=1;strokeColor=none;fillColor=none;" vertex="1" parent="1">
          <mxGeometry x="80" y="240" width="80" height="30" as="geometry" />
        </mxCell>
        <mxCell id="wZC5xmdolLClaahxzQqj-57" value="&lt;font style=&quot;font-size: 15px;&quot; face=&quot;Maple Mono SC NF&quot;&gt;Server&lt;/font&gt;" style="text;html=1;align=center;verticalAlign=middle;resizable=0;points=[];autosize=1;strokeColor=none;fillColor=none;" vertex="1" parent="1">
          <mxGeometry x="480" y="160" width="80" height="30" as="geometry" />
        </mxCell>
      </root>
    </mxGraphModel>
  </diagram>
</mxfile>
